<?xml version="1.0" standalone="no"?>
<!DOCTYPE svg PUBLIC "-//W3C//DTD SVG 20010904//EN"
 "http://www.w3.org/TR/2001/REC-SVG-20010904/DTD/svg10.dtd">
<svg version="1.0" xmlns="http://www.w3.org/2000/svg"
 width="249.000000pt" height="66.000000pt" viewBox="0 0 249.000000 66.000000"
 preserveAspectRatio="xMidYMid meet">

<g transform="translate(0.000000,66.000000) scale(0.100000,-0.100000)"
fill="#000000" stroke="none">
<path d="M130 507 c-45 -23 -50 -48 -50 -260 l0 -198 270 3 c265 3 270 3 292
26 22 22 23 29 26 232 l3 210 -258 0 c-187 0 -265 -4 -283 -13z m520 -204 c0
-169 -2 -199 -17 -215 -15 -17 -37 -18 -275 -18 l-258 0 0 195 c0 182 1 196
20 215 19 19 33 20 275 20 l255 0 0 -197z"/>
<path d="M170 295 l0 -115 25 0 c22 0 25 4 25 38 0 26 7 45 19 56 19 17 21 16
51 -38 27 -48 36 -56 61 -56 l29 0 -26 43 c-15 23 -36 55 -47 70 l-20 29 44
44 43 44 -29 0 c-21 0 -42 -13 -77 -47 l-48 -47 0 47 c0 43 -2 47 -25 47 l-25
0 0 -115z"/>
<path d="M400 295 l0 -115 25 0 c23 0 25 3 25 50 0 43 3 50 20 50 13 0 31 -17
51 -50 26 -42 36 -50 60 -50 l29 0 -26 43 c-15 23 -33 46 -41 51 -12 7 -11 10
7 20 32 16 44 39 36 70 -8 34 -40 46 -122 46 l-64 0 0 -115z m135 50 c0 -16
-8 -21 -42 -23 -40 -3 -43 -2 -43 23 0 25 3 26 43 23 34 -2 42 -7 42 -23z"/>
<path d="M845 390 c-4 -6 -1 -17 5 -25 12 -15 9 -121 -5 -162 -7 -22 -5 -23
48 -23 56 0 78 13 58 33 -6 6 -11 18 -11 27 1 9 13 1 34 -22 29 -34 38 -38 80
-38 27 0 46 5 46 11 0 8 4 8 13 1 15 -12 138 -13 154 0 7 5 14 5 18 -2 3 -5
31 -10 61 -10 41 0 54 4 54 15 0 8 -4 15 -10 15 -5 0 -10 16 -10 36 0 22 4 33
11 29 16 -11 59 4 59 20 0 8 5 15 10 15 6 0 10 -17 10 -37 0 -77 39 -108 101
-83 34 15 43 56 9 45 -18 -6 -20 -2 -20 34 0 34 3 41 20 41 11 0 20 7 20 15 0
8 -9 15 -20 15 -11 0 -20 7 -20 15 0 26 -28 28 -67 5 -28 -16 -53 -23 -93 -22
-84 0 -143 -22 -110 -43 11 -7 14 -68 3 -78 -14 -15 -33 18 -33 59 0 52 -22
69 -82 61 -43 -6 -68 -22 -68 -43 0 -19 34 -18 50 1 14 17 30 11 30 -11 0 -8
-10 -14 -23 -14 -28 0 -67 -26 -67 -46 0 -24 -14 -15 -58 42 -42 53 -43 56
-28 79 9 14 25 25 36 25 11 0 20 7 20 16 0 22 -105 16 -105 -6 -1 -8 -6 -24
-13 -35 -12 -18 -12 -16 -7 18 l6 37 -50 0 c-27 0 -53 -5 -56 -10z m341 -167
c-10 -10 -19 5 -10 18 6 11 8 11 12 0 2 -7 1 -15 -2 -18z"/>
<path d="M1740 382 c-24 -13 -39 -31 -49 -59 -13 -37 -13 -43 7 -82 18 -33 19
-41 7 -41 -38 0 -8 -28 58 -53 82 -31 113 -34 145 -11 24 17 20 39 -5 29 -9
-3 -24 -3 -34 0 -17 6 -15 10 16 39 30 29 35 40 35 80 0 92 -95 144 -180 98z
m80 -64 c24 -40 26 -86 4 -95 -21 -8 -42 19 -50 64 -12 66 14 83 46 31z"/>
<path d="M2165 387 c-22 -17 -12 -37 20 -37 36 0 55 10 55 31 0 23 -46 26 -75
6z"/>
<path d="M1948 333 c-20 -5 -23 -18 -8 -28 6 -3 10 -26 10 -50 0 -71 0 -71
245 -71 195 1 219 3 229 18 18 29 -8 46 -34 23 -27 -25 -26 -5 5 55 14 27 25
52 25 55 0 3 -31 5 -68 5 -70 0 -92 -10 -92 -42 0 -22 18 -23 42 -1 26 23 22
3 -9 -52 -24 -44 -27 -46 -40 -29 -7 10 -13 42 -13 71 0 58 -4 61 -59 42 -34
-12 -37 -20 -20 -48 14 -22 3 -74 -14 -68 -7 2 -13 28 -15 65 -3 66 -10 72
-69 56 -19 -5 -21 -11 -16 -60 4 -36 2 -54 -5 -54 -6 0 -12 25 -14 58 -3 56
-4 57 -33 59 -16 0 -38 -1 -47 -4z"/>
</g>
</svg>
